<svg width="16" height="16" viewBox="0 0 16 16" fill="none" xmlns="http://www.w3.org/2000/svg">
<path d="M3.99996 14.6667C3.63329 14.6667 3.31951 14.5363 3.05863 14.2754C2.79774 14.0145 2.66707 13.7005 2.66663 13.3334V6.66675C2.66663 6.30008 2.79729 5.9863 3.05863 5.72541C3.31996 5.46453 3.63374 5.33386 3.99996 5.33341H4.66663V4.00008C4.66663 3.07786 4.99174 2.29186 5.64196 1.64208C6.29218 0.992304 7.07818 0.667193 7.99996 0.666749C8.92174 0.666304 9.70796 0.991415 10.3586 1.64208C11.0093 2.29275 11.3342 3.07875 11.3333 4.00008V5.33341H12C12.3666 5.33341 12.6806 5.46408 12.942 5.72541C13.2033 5.98675 13.3337 6.30053 13.3333 6.66675V13.3334C13.3333 13.7001 13.2028 14.0141 12.942 14.2754C12.6811 14.5367 12.3671 14.6672 12 14.6667H3.99996ZM3.99996 13.3334H12V6.66675H3.99996V13.3334ZM7.99996 11.3334C8.36663 11.3334 8.68063 11.203 8.94196 10.9421C9.20329 10.6812 9.33374 10.3672 9.33329 10.0001C9.33285 9.63297 9.2024 9.31919 8.94196 9.05875C8.68152 8.7983 8.36752 8.66764 7.99996 8.66675C7.6324 8.66586 7.31863 8.79653 7.05863 9.05875C6.79863 9.32097 6.66796 9.63475 6.66663 10.0001C6.66529 10.3654 6.79596 10.6794 7.05863 10.9421C7.32129 11.2047 7.63507 11.3352 7.99996 11.3334ZM5.99996 5.33341H9.99996V4.00008C9.99996 3.44453 9.80552 2.9723 9.41663 2.58342C9.02774 2.19453 8.55551 2.00008 7.99996 2.00008C7.4444 2.00008 6.97218 2.19453 6.58329 2.58342C6.1944 2.9723 5.99996 3.44453 5.99996 4.00008V5.33341Z" fill="#91A2AE"/>
</svg>
