<svg width="16" height="16" viewBox="0 0 16 16" fill="none" xmlns="http://www.w3.org/2000/svg">
<path d="M1.33332 3.51341L2.18666 2.66675L13.3333 13.8134L12.4867 14.6667L10.4333 12.6134C9.66666 12.8667 8.85332 13.0001 7.99999 13.0001C4.66666 13.0001 1.81999 10.9267 0.666656 8.00008C1.12666 6.82675 1.85999 5.79341 2.79332 4.97341L1.33332 3.51341ZM7.99999 6.00008C8.53042 6.00008 9.03913 6.21079 9.4142 6.58587C9.78928 6.96094 9.99999 7.46965 9.99999 8.00008C10.0003 8.22713 9.962 8.45257 9.88666 8.66675L7.33332 6.11341C7.5475 6.03807 7.77295 5.99974 7.99999 6.00008ZM7.99999 3.00008C11.3333 3.00008 14.18 5.07341 15.3333 8.00008C14.7889 9.38204 13.8644 10.5816 12.6667 11.4601L11.72 10.5067C12.642 9.86905 13.3855 9.00615 13.88 8.00008C13.3411 6.89999 12.5044 5.97317 11.4649 5.32498C10.4254 4.6768 9.22498 4.33326 7.99999 4.33341C7.27332 4.33341 6.55999 4.45341 5.89332 4.66675L4.86666 3.64675C5.82666 3.23341 6.88666 3.00008 7.99999 3.00008ZM2.11999 8.00008C2.65889 9.10017 3.49563 10.027 4.53508 10.6752C5.57453 11.3234 6.775 11.6669 7.99999 11.6667C8.45999 11.6667 8.91332 11.6201 9.33332 11.5267L7.81332 10.0001C7.34943 9.95036 6.91654 9.74333 6.58664 9.41343C6.25674 9.08353 6.04971 8.65064 5.99999 8.18675L3.73332 5.91341C3.07332 6.48008 2.51999 7.18675 2.11999 8.00008Z" fill="#91A2AE"/>
</svg>
