<svg width="16" height="16" viewBox="0 0 16 16" fill="none" xmlns="http://www.w3.org/2000/svg">
<path fill-rule="evenodd" clip-rule="evenodd" d="M1.33337 3.33341C1.33337 2.96522 1.63185 2.66675 2.00004 2.66675L14 2.66675C14.3682 2.66675 14.6667 2.96522 14.6667 3.33341L14.6667 12.6667C14.6667 13.0349 14.3682 13.3334 14 13.3334L2.00004 13.3334C1.63185 13.3334 1.33337 13.0349 1.33337 12.6667L1.33337 3.33341ZM2.66671 4.00008L2.66671 12.0001L13.3334 12.0001L13.3334 4.00008L2.66671 4.00008ZM3.52864 4.86201C3.78899 4.60166 4.2111 4.60166 4.47145 4.86201L8.00004 8.39061L11.5286 4.86201C11.789 4.60166 12.2111 4.60166 12.4714 4.86201C12.7318 5.12236 12.7318 5.54447 12.4714 5.80482L8.47144 9.80482C8.2111 10.0652 7.78899 10.0652 7.52864 9.80482L3.52864 5.80482C3.26829 5.54447 3.26829 5.12236 3.52864 4.86201Z" fill="#91A2AE"/>
</svg>
