<svg width="40" height="40" viewBox="0 0 40 40" fill="none" xmlns="http://www.w3.org/2000/svg">
<path d="M20 29C24.9706 29 29 24.9706 29 20C29 15.0294 24.9706 11 20 11C15.0294 11 11 15.0294 11 20C11 24.9706 15.0294 29 20 29Z" stroke="#141719" stroke-width="1.5" stroke-linecap="round" stroke-linejoin="round"/>
<path d="M21.0781 24.875C21.0781 25.4704 20.5954 25.9531 20 25.9531C19.4046 25.9531 18.9219 25.4704 18.9219 24.875C18.9219 24.2796 19.4046 23.7969 20 23.7969C20.5954 23.7969 21.0781 24.2796 21.0781 24.875Z" fill="#141719" stroke="#141719" stroke-width="0.09375"/>
<path d="M20 21.5V20.75C20.5192 20.75 21.0267 20.596 21.4584 20.3076C21.8901 20.0192 22.2265 19.6092 22.4252 19.1295C22.6239 18.6499 22.6758 18.1221 22.5746 17.6129C22.4733 17.1037 22.2233 16.636 21.8562 16.2688C21.489 15.9017 21.0213 15.6517 20.5121 15.5504C20.0029 15.4492 19.4751 15.5011 18.9955 15.6998C18.5158 15.8985 18.1058 16.235 17.8174 16.6666C17.529 17.0983 17.375 17.6058 17.375 18.125" stroke="#141719" stroke-width="1.5" stroke-linecap="round" stroke-linejoin="round"/>
</svg>
