<svg width="17" height="16" viewBox="0 0 17 16" fill="none" xmlns="http://www.w3.org/2000/svg">
<path fill-rule="evenodd" clip-rule="evenodd" d="M16.1779 8.18358C16.1779 7.61635 16.127 7.07095 16.0325 6.54736H8.49792V9.64162H12.8034C12.6179 10.6415 12.0543 11.4887 11.207 12.0559V14.063H13.7925C15.3052 12.6704 16.1779 10.6197 16.1779 8.18358Z" fill="#4285F4"/>
<path fill-rule="evenodd" clip-rule="evenodd" d="M8.50053 15.9997C10.6605 15.9997 12.4714 15.2834 13.7951 14.0617L11.2096 12.0546C10.4933 12.5345 9.5769 12.8181 8.50053 12.8181C6.4169 12.8181 4.65326 11.411 4.02417 9.52026H1.35144V11.5928C2.6678 14.2071 5.37326 15.9997 8.50053 15.9997Z" fill="#34A853"/>
<path fill-rule="evenodd" clip-rule="evenodd" d="M4.02364 9.51875C3.86364 9.03879 3.77273 8.52611 3.77273 7.99889C3.77273 7.47167 3.86364 6.95899 4.02364 6.47903V4.40649H1.35091C0.809091 5.48639 0.5 6.7081 0.5 7.99889C0.5 9.28968 0.809091 10.5114 1.35091 11.5913L4.02364 9.51875Z" fill="#FBBC05"/>
<path fill-rule="evenodd" clip-rule="evenodd" d="M8.50041 3.18152C9.67496 3.18152 10.7295 3.58512 11.5586 4.37778L13.8531 2.08344C12.4677 0.792654 10.6568 0 8.50041 0C5.37314 0 2.66768 1.79256 1.35132 4.40687L4.02405 6.4794C4.65314 4.58867 6.41677 3.18152 8.50041 3.18152Z" fill="#EB4335"/>
</svg>
