<svg width="16" height="16" viewBox="0 0 16 16" fill="none" xmlns="http://www.w3.org/2000/svg">
<path d="M8 2.66659C7.38116 2.66659 6.78767 2.91242 6.35008 3.35C5.9125 3.78759 5.66667 4.38108 5.66667 4.99992C5.66667 5.61876 5.9125 6.21225 6.35008 6.64983C6.78767 7.08742 7.38116 7.33325 8 7.33325C8.61884 7.33325 9.21233 7.08742 9.64992 6.64983C10.0875 6.21225 10.3333 5.61876 10.3333 4.99992C10.3333 4.38108 10.0875 3.78759 9.64992 3.35C9.21233 2.91242 8.61884 2.66659 8 2.66659ZM4.33333 4.99992C4.33333 4.02746 4.71964 3.09483 5.40727 2.40719C6.09491 1.71956 7.02754 1.33325 8 1.33325C8.97246 1.33325 9.90509 1.71956 10.5927 2.40719C11.2804 3.09483 11.6667 4.02746 11.6667 4.99992C11.6667 5.97238 11.2804 6.90501 10.5927 7.59264C9.90509 8.28028 8.97246 8.66658 8 8.66658C7.02754 8.66658 6.09491 8.28028 5.40727 7.59264C4.71964 6.90501 4.33333 5.97238 4.33333 4.99992ZM2 12.6666C2 11.7825 2.35119 10.9347 2.97631 10.3096C3.60143 9.68444 4.44928 9.33325 5.33333 9.33325H10.6667C11.5507 9.33325 12.3986 9.68444 13.0237 10.3096C13.6488 10.9347 14 11.7825 14 12.6666V14.6666H2V12.6666ZM5.33333 10.6666C4.8029 10.6666 4.29419 10.8773 3.91912 11.2524C3.54405 11.6274 3.33333 12.1362 3.33333 12.6666V13.3333H12.6667V12.6666C12.6667 12.1362 12.456 11.6274 12.0809 11.2524C11.7058 10.8773 11.1971 10.6666 10.6667 10.6666H5.33333Z" fill="#91A2AE"/>
</svg>
